<?xml version="1.0" encoding="UTF-8"?>
<svg width="176px" height="60px" viewBox="0 0 176 60" version="1.1" xmlns="http://www.w3.org/2000/svg" xmlns:xlink="http://www.w3.org/1999/xlink">
    <title>logo</title>
    <g id="Page-1" stroke="none" stroke-width="1" fill="none" fill-rule="evenodd">
        <g id="logo">
            <g id="medplus" transform="translate(68.988764, 16.629213)" fill="#3A2D7B">
                <polygon id="Fill-1" points="11.327191 0.135168539 7.47483146 8.25719101 3.60382022 0.135168539 4.4708307e-14 0.135168539 4.4708307e-14 13.8877528 2.98808989 13.8877528 2.98808989 5.16280899 6.39842697 12.5158427 8.53258427 12.5158427 11.9431461 5.16280899 11.9431461 13.8877528 14.9121348 13.8877528 14.9121348 0.135168539"></polygon>
                <polygon id="Fill-2" points="22.8935281 11.1314831 22.8935281 8.36069663 29.4256629 8.36069663 29.4256629 5.60429213 22.8935281 5.60429213 22.8935281 2.89148315 30.1407191 2.89148315 30.1407191 0.135078652 19.6155506 0.135078652 19.6155506 13.8878876 30.3533034 13.8878876 30.3533034 11.1314831"></polygon>
                <path d="M37.7357528,2.93033708 L40.2517079,2.93033708 C42.5382247,2.93033708 44.1977753,4.65483146 44.1977753,7.03078652 C44.1977753,9.42247191 42.6305843,11.092809 40.3869888,11.092809 L37.7357528,11.092809 L37.7357528,2.93033708 Z M40.3096854,0.13505618 L34.4577753,0.13505618 L34.4577753,13.8878652 L40.1937303,13.8878652 C44.5157528,13.8878652 47.5341798,11.0602247 47.5341798,7.01146067 C47.5341798,2.96269663 44.5633933,0.13505618 40.3096854,0.13505618 L40.3096854,0.13505618 Z" id="Fill-3"></path>
                <path d="M59.5038652,5.04035955 C59.5038652,6.86417978 58.1146517,7.2468764 56.9492584,7.2468764 L54.5299326,7.2468764 L54.5299326,2.89137079 L56.9492584,2.89137079 C58.1146517,2.89137079 59.5038652,3.26417978 59.5038652,5.04035955 M57.1038652,0.135191011 L51.2519551,0.135191011 L51.2519551,13.8877753 L54.5299326,13.8877753 L54.5299326,10.0228315 L57.1038652,10.0228315 C60.6142022,10.0228315 62.6274607,8.17159551 62.6274607,4.94350562 C62.6274607,1.88777528 60.6142022,0.135191011 57.1038652,0.135191011" id="Fill-5"></path>
                <polygon id="Fill-7" points="69.5653034 10.9960674 69.5653034 0.135168539 66.2873258 0.135168539 66.2873258 13.8877528 75.3630562 13.8877528 75.3630562 10.9960674"></polygon>
                <path d="M87.7963146,0.13505618 L87.7963146,8.11303371 C87.7963146,9.97505618 86.6841798,11.1314607 84.8940674,11.1314607 C83.0839551,11.1314607 81.9142921,9.94674157 81.9142921,8.11303371 L81.9142921,0.13505618 L78.6360899,0.13505618 L78.6360899,8.11303371 C78.6360899,11.758427 81.0340674,14.0231461 84.8940674,14.0231461 C88.706427,14.0231461 91.0745169,11.758427 91.0745169,8.11303371 L91.0745169,0.13505618 L87.7963146,0.13505618 Z" id="Fill-9"></path>
                <path d="M101.340022,5.54269663 C99.9278876,5.13235955 98.7083371,4.77797753 98.7083371,3.82292135 C98.7083371,2.92988764 99.8326067,2.83348315 100.315753,2.83348315 C101.400472,2.83348315 103.109236,3.39910112 104.471483,4.20921348 L104.578225,4.27280899 L105.850584,1.54044944 L105.769461,1.48719101 C104.352607,0.555955056 102.407888,-4.79017575e-14 100.567438,-4.79017575e-14 C97.3175506,-4.79017575e-14 95.2175506,1.61438202 95.2175506,4.11280899 C95.2175506,6.96898876 97.7263146,7.66808989 99.7422697,8.22988764 C101.18227,8.63101124 102.425865,8.97752809 102.425865,9.96831461 C102.425865,10.7197753 101.734404,11.1507865 100.528562,11.1507865 C99.0755281,11.1507865 97.1355281,10.3278652 95.8105843,9.14988764 L95.6997978,9.05146067 L94.3788989,11.7559551 L94.4456404,11.8123596 C96.0487865,13.1723596 98.3081124,13.9842697 100.489685,13.9842697 C103.774629,13.9842697 105.897366,12.3395506 105.897366,9.79483146 C105.909011,6.8705618 103.375753,6.1341573 101.340022,5.54269663" id="Fill-11"></path>
            </g>
            <g id="dist" transform="translate(68.988764, 37.752809)" fill="#AA4DBD">
                <path d="M1.43977528,4.57831461 L2.46719101,4.57831461 C3.34876404,4.57831461 3.97977528,3.89921348 3.97977528,2.9041573 C3.97977528,1.90101124 3.31640449,1.21314607 2.40247191,1.21314607 L1.43977528,1.21314607 L1.43977528,4.57831461 Z M2.43483146,0.0646067416 C4.21438202,0.0646067416 5.44382022,1.21314607 5.44382022,2.89606742 C5.44382022,4.57022472 4.19797753,5.72685393 2.37820225,5.72685393 L4.4708307e-14,5.72685393 L4.4708307e-14,0.0646067416 L2.43483146,0.0646067416 Z" id="Fill-13"></path>
                <polygon id="Fill-15" points="8.22730337 5.72694382 9.66707865 5.72694382 9.66707865 0.0646966292 8.22730337 0.0646966292"></polygon>
                <path d="M17.2307865,0.631011236 L16.688764,1.7552809 C16.0903371,1.40741573 15.3379775,1.1647191 14.8768539,1.1647191 C14.5049438,1.1647191 14.2541573,1.30224719 14.2541573,1.57730337 C14.2541573,2.55595506 17.2469663,1.99797753 17.2469663,4.04426966 C17.2469663,5.17685393 16.2438202,5.77573034 14.9820225,5.77573034 C14.0357303,5.77573034 13.0649438,5.41977528 12.3937079,4.8694382 L12.9516854,3.76157303 C13.5341573,4.27078652 14.4076404,4.6105618 14.9982022,4.6105618 C15.451236,4.6105618 15.734382,4.44067416 15.734382,4.11752809 C15.734382,3.1141573 12.7413483,3.71280899 12.7413483,1.70674157 C12.7413483,0.663595506 13.6393258,-7.82395372e-14 14.9982022,-7.82395372e-14 C15.8152809,-7.82395372e-14 16.6483146,0.251011236 17.2307865,0.631011236" id="Fill-17"></path>
                <polygon id="Fill-18" points="22.6753933 1.22134831 22.6753933 5.72719101 21.235618 5.72719101 21.235618 1.22134831 19.5450562 1.22134831 19.5450562 0.0566292135 24.3823596 0.0566292135 24.3823596 1.22134831"></polygon>
                <path d="M29.5517079,3.0008764 C30.1746292,3.0008764 30.5388989,2.68582022 30.5388989,2.08716854 C30.5388989,1.49683146 30.1746292,1.19750562 29.5517079,1.19750562 L28.4600225,1.19750562 L28.4600225,3.0008764 L29.5517079,3.0008764 Z M29.592382,4.13346067 L29.5517079,4.13346067 L28.4600225,4.13346067 L28.4600225,5.72694382 L27.0197978,5.72694382 L27.0197978,0.0649213483 L29.5517079,0.0649213483 C31.0481124,0.0649213483 31.9058652,0.776831461 31.9058652,2.03840449 C31.9058652,2.90379775 31.5415955,3.5267191 30.8782247,3.85817978 L32.0674382,5.72694382 L30.4335056,5.72694382 L29.592382,4.13346067 Z" id="Fill-19"></path>
                <polygon id="Fill-20" points="34.8994382 5.72694382 36.3392135 5.72694382 36.3392135 0.0646966292 34.8994382 0.0646966292"></polygon>
                <path d="M40.9263596,4.61867416 L42.0910787,4.61867416 C42.6250112,4.61867416 42.9566966,4.38406742 42.9566966,3.97957303 C42.9566966,3.59957303 42.6250112,3.36496629 42.0910787,3.36496629 L40.9263596,3.36496629 L40.9263596,4.61867416 Z M40.9263596,2.32946067 L42.0910787,2.32946067 C42.5117528,2.32946067 42.7787191,2.10339326 42.7787191,1.73934831 C42.7787191,1.37507865 42.5117528,1.16474157 42.0910787,1.16474157 L40.9263596,1.16474157 L40.9263596,2.32946067 Z M42.1719775,0.0645168539 C43.4416404,0.0645168539 44.2508539,0.615078652 44.2508539,1.48024719 C44.2508539,2.07867416 43.8787191,2.55597753 43.2802921,2.72586517 C43.9919775,2.86339326 44.4450112,3.42159551 44.4450112,4.15755056 C44.4450112,5.12024719 43.6036629,5.72721348 42.2690562,5.72721348 L39.4944494,5.72721348 L39.4944494,0.0645168539 L42.1719775,0.0645168539 Z" id="Fill-21"></path>
                <path d="M52.3971236,3.3487191 C52.3971236,4.8451236 51.4022921,5.79164045 49.8171236,5.79164045 C48.223191,5.79164045 47.2043146,4.8451236 47.2043146,3.3487191 L47.2043146,0.0648988764 L48.6438652,0.0648988764 L48.6438652,3.3487191 C48.6438652,4.11725843 49.1373483,4.58669663 49.8252135,4.58669663 C50.5043146,4.58669663 50.9654382,4.11725843 50.9654382,3.3487191 L50.9654382,0.0648988764 L52.3971236,0.0648988764 L52.3971236,3.3487191 Z" id="Fill-22"></path>
                <polygon id="Fill-23" points="55.455618 5.72694382 56.8953933 5.72694382 56.8953933 0.0646966292 55.455618 0.0646966292"></polygon>
                <path d="M61.4905618,4.57831461 L62.5179775,4.57831461 C63.3995506,4.57831461 64.0305618,3.89921348 64.0305618,2.9041573 C64.0305618,1.90101124 63.3674157,1.21314607 62.4532584,1.21314607 L61.4905618,1.21314607 L61.4905618,4.57831461 Z M62.485618,0.0646067416 C64.2653933,0.0646067416 65.4946067,1.21314607 65.4946067,2.89606742 C65.4946067,4.57022472 64.248764,5.72685393 62.4289888,5.72685393 L60.0507865,5.72685393 L60.0507865,0.0646067416 L62.485618,0.0646067416 Z" id="Fill-24"></path>
                <path d="M69.2732135,2.89575281 C69.2732135,3.85035955 70.0091685,4.58631461 70.8747865,4.58631461 C71.7487191,4.58631461 72.444,3.85035955 72.444,2.89575281 C72.444,1.94137079 71.7487191,1.22137079 70.8747865,1.22137079 C70.0013034,1.22137079 69.2732135,1.94137079 69.2732135,2.89575281 M73.9242247,2.88766292 C73.9242247,4.53822472 72.6138876,5.79193258 70.8588315,5.79193258 C69.1114157,5.79193258 67.8010787,4.54631461 67.8010787,2.88766292 C67.8010787,1.23755056 69.1114157,0.0164269663 70.8588315,0.0164269663 C72.6138876,0.0164269663 73.9242247,1.24564045 73.9242247,2.88766292" id="Fill-25"></path>
                <path d="M79.2396404,3.0008764 C79.8625618,3.0008764 80.2268315,2.68582022 80.2268315,2.08716854 C80.2268315,1.49683146 79.8625618,1.19750562 79.2396404,1.19750562 L78.1479551,1.19750562 L78.1479551,3.0008764 L79.2396404,3.0008764 Z M79.2803146,4.13346067 L79.2396404,4.13346067 L78.1479551,4.13346067 L78.1479551,5.72694382 L76.7077303,5.72694382 L76.7077303,0.0649213483 L79.2396404,0.0649213483 C80.7360449,0.0649213483 81.5937978,0.776831461 81.5937978,2.03840449 C81.5937978,2.90379775 81.2295281,3.5267191 80.5661573,3.85817978 L81.7553708,5.72694382 L80.1214382,5.72694382 L79.2803146,4.13346067 Z" id="Fill-26"></path>
                <path d="M87.1193034,1.49653933 L86.2941348,3.59137079 L87.9285169,3.59137079 L87.1193034,1.49653933 Z M85.8736854,4.68373034 L85.4611011,5.7268764 L83.9808764,5.7268764 L86.423573,0.0646292135 L87.9040225,0.0646292135 L90.2900899,5.7268764 L88.753236,5.7268764 L88.349191,4.68373034 L85.8736854,4.68373034 Z" id="Fill-27"></path>
            </g>
            <g id="plus">
                <g id="horizontal" transform="translate(0.000000, 16.629213)">
                    <path d="M14.9210112,1.05483146 L45.3374157,1.05483146 C48.757191,1.05483146 51.8639326,2.45258427 54.1153933,4.70404494 C56.3664045,6.95505618 57.7639326,10.0629213 57.7639326,13.4817978 C57.7639326,16.9008989 56.3664045,20.0083146 54.1153933,22.2593258 C51.8639326,24.5098876 48.757191,25.9083146 45.3374157,25.9083146 L14.9210112,25.9083146 C11.5019101,25.9083146 8.39449438,24.5098876 6.14303371,22.2593258 C3.89224719,20.0083146 2.49449438,16.9008989 2.49449438,13.4817978 C2.49449438,10.0629213 3.89224719,6.95505618 6.14303371,4.70404494 C8.39449438,2.45258427 11.5019101,1.05483146 14.9210112,1.05483146" id="Fill-28" fill="#FFFFFF"></path>
                    <path d="M47.104427,6.81786517 C50.8426292,6.81786517 55.4646517,10.1989888 55.593191,14.3221348 C55.7219551,18.4457303 51.6068989,23.5077528 47.104427,23.428427 L19.7392584,23.428427 L19.7392584,6.81786517 L47.104427,6.81786517 Z" id="Fill-29" fill="#3A2D7B"></path>
                    <path d="M12.4834382,6.81786517 C8.74523596,6.81786517 4.12321348,10.1989888 3.99467416,14.3221348 C3.86591011,18.4457303 7.98096629,23.5077528 12.4834382,23.428427 L18.1993933,23.428427 L18.1993933,6.81786517 L12.4834382,6.81786517 Z" id="Fill-30" fill="#BFB8E5"></path>
                    <path d="M13.4925843,4.15370787 C10.9292135,4.15370787 8.59752809,5.20382022 6.90561798,6.89505618 C5.21460674,8.58651685 4.16404494,10.9182022 4.16404494,13.4817978 C4.16404494,16.0444944 5.21460674,18.3764045 6.90561798,20.0683146 C8.59752809,21.76 10.9292135,22.8098876 13.4925843,22.8098876 L16.4961798,22.8098876 L16.4961798,4.15370787 L13.4925843,4.15370787 Z M46.4903371,4.15370787 L20.6492135,4.15370787 L20.6492135,22.8098876 L46.4903371,22.8098876 C49.0539326,22.8098876 51.385618,21.76 53.0768539,20.0683146 C54.7689888,18.3764045 55.8191011,16.0444944 55.8191011,13.4817978 C55.8191011,10.9182022 54.7689888,8.58651685 53.0768539,6.89505618 C51.385618,5.20382022 49.0539326,4.15370787 46.4903371,4.15370787 L46.4903371,4.15370787 Z M13.4813483,4.15148565e-14 L46.4791011,4.15148565e-14 C50.1892135,4.15148565e-14 53.5595506,1.51662921 56.0020225,3.95910112 C58.4442697,6.4011236 59.9604494,9.77280899 59.9604494,13.4817978 C59.9604494,17.1910112 58.4442697,20.5622472 56.0020225,23.0042697 C53.5595506,25.4458427 50.1892135,26.9626966 46.4791011,26.9626966 L13.4813483,26.9626966 C9.77191011,26.9626966 6.40089888,25.4458427 3.95820225,23.0042697 C1.51662921,20.5622472 6.386901e-15,17.1910112 6.386901e-15,13.4817978 C6.386901e-15,9.77280899 1.51662921,6.4011236 3.95820225,3.95910112 C6.40089888,1.51662921 9.77191011,4.15148565e-14 13.4813483,4.15148565e-14 L13.4813483,4.15148565e-14 Z" id="Fill-31" fill="#3A2D7B"></path>
                </g>
                <g id="vertical" transform="translate(16.629213, 0.000000)">
                    <path d="M1.05460674,45.0394607 L1.05460674,14.6232809 C1.05460674,11.2035056 2.45258427,8.09676404 4.70404494,5.84530337 C6.95505618,3.59406742 10.0626966,2.19676404 13.481573,2.19676404 C16.9006742,2.19676404 20.0080899,3.59406742 22.2591011,5.84530337 C24.5098876,8.09676404 25.9080899,11.2035056 25.9080899,14.6232809 L25.9080899,45.0394607 C25.9080899,48.4585618 24.5098876,51.5659775 22.2591011,53.8174382 C20.0080899,56.0682247 16.9006742,57.4659775 13.481573,57.4659775 C10.0626966,57.4659775 6.95505618,56.0682247 4.70404494,53.8174382 C2.45258427,51.5659775 1.05460674,48.4585618 1.05460674,45.0394607" id="Fill-32" fill="#FFFFFF"></path>
                    <path d="M6.81775281,12.8561348 C6.81775281,9.11793258 10.1988764,4.49591011 14.3220225,4.36737079 C18.445618,4.23860674 23.5074157,8.35366292 23.4283146,12.8561348 L23.4283146,40.2208539 L6.81775281,40.2208539 L6.81775281,12.8561348 Z" id="Fill-33" fill="#3A2D7B"></path>
                    <path d="M6.81775281,47.4771236 C6.81775281,51.2153258 10.1988764,55.8373483 14.3220225,55.9656629 C18.445618,56.0946517 23.5074157,51.9795955 23.4283146,47.4771236 L23.4283146,41.7609438 L6.81775281,41.7609438 L6.81775281,47.4771236 Z" id="Fill-34" fill="#BFB8E5"></path>
                    <path d="M4.15348315,46.4678652 C4.15348315,49.0310112 5.20359551,51.3629213 6.89483146,53.0548315 C8.58629213,54.745618 10.9179775,55.7964045 13.481573,55.7964045 C16.0444944,55.7964045 18.3761798,54.745618 20.0680899,53.0548315 C21.7597753,51.3629213 22.8096629,49.0310112 22.8096629,46.4678652 L22.8096629,43.4644944 L4.15348315,43.4644944 L4.15348315,46.4678652 Z M4.15348315,13.4701124 L4.15348315,39.311236 L22.8096629,39.311236 L22.8096629,13.4701124 C22.8096629,10.9062921 21.7597753,8.57460674 20.0680899,6.88337079 C18.3761798,5.19146067 16.0444944,4.1411236 13.481573,4.1411236 C10.9179775,4.1411236 8.58629213,5.19146067 6.89483146,6.88337079 C5.20359551,8.57460674 4.15348315,10.9062921 4.15348315,13.4701124 L4.15348315,13.4701124 Z M-7.98362624e-15,46.4791011 L-7.98362624e-15,13.4813483 C-7.98362624e-15,9.77123596 1.51640449,6.40089888 3.9588764,3.95842697 C6.4011236,1.51617978 9.77258427,-1.46898723e-13 13.481573,-1.46898723e-13 C17.1907865,-1.46898723e-13 20.5620225,1.51617978 23.0040449,3.95842697 C25.4458427,6.40089888 26.9626966,9.77123596 26.9626966,13.4813483 L26.9626966,46.4791011 C26.9626966,50.1885393 25.4458427,53.5597753 23.0040449,56.0022472 C20.5620225,58.4438202 17.1907865,59.9604494 13.481573,59.9604494 C9.77258427,59.9604494 6.4011236,58.4438202 3.9588764,56.0022472 C1.51640449,53.5597753 -7.98362624e-15,50.1885393 -7.98362624e-15,46.4791011 L-7.98362624e-15,46.4791011 Z" id="Fill-35" fill="#3A2D7B"></path>
                </g>
            </g>
        </g>
    </g>
</svg>