<?xml version="1.0" encoding="utf-8"?>
<!-- Generator: Adobe Illustrator 25.2.0, SVG Export Plug-In . SVG Version: 6.00 Build 0)  -->
<svg version="1.1" id="Layer_1" xmlns="http://www.w3.org/2000/svg" xmlns:xlink="http://www.w3.org/1999/xlink" x="0px" y="0px"
	 viewBox="0 0 228.1 60" style="enable-background:new 0 0 228.1 60;" xml:space="preserve">
<style type="text/css">
	.st0{fill:#594262;}
	.st1{fill:#755B7E;}
	.st2{fill:#DECEEC;}
</style>
<g>
	<g>
		<path class="st0" d="M23.2,39V25.5l-6,13.5h-5l-6-13.5V39H0V15.8h7.7l7.1,15.8l7.1-15.8h7.6V39H23.2z"/>
		<path class="st0" d="M39.7,32c0.1,1.1,0.5,1.9,1.3,2.4c0.7,0.6,1.7,0.8,3,0.8c2.1,0,3.3-0.6,3.8-1.7h6c-0.9,4-4.2,6-9.9,6
			c-3.2,0-5.7-0.8-7.5-2.3c-1.8-1.5-2.7-3.7-2.7-6.5c0-1.8,0.4-3.4,1.2-4.8c0.8-1.4,2-2.5,3.6-3.3c1.6-0.8,3.4-1.2,5.5-1.2
			c3.1,0,5.6,0.8,7.3,2.3c1.7,1.6,2.6,3.7,2.6,6.6V32H39.7z M47.9,28.6c-0.1-2-1.5-2.9-4-2.9c-1.1,0-2,0.3-2.7,0.8
			c-0.7,0.5-1.2,1.2-1.3,2.1H47.9z"/>
		<path class="st0" d="M71.6,39v-2.3c-1.6,1.9-3.8,2.8-6.6,2.8c-1.6,0-3-0.4-4.2-1.1c-1.2-0.7-2.2-1.7-2.9-3.1
			c-0.7-1.3-1.1-2.9-1.1-4.7c0-1.8,0.4-3.4,1.1-4.8c0.7-1.4,1.7-2.5,3.1-3.3c1.3-0.8,2.9-1.2,4.7-1.2c2.5,0,4.5,0.8,5.9,2.4v-8h6.4
			V39H71.6z M71.5,30.2c0-1.2-0.4-2.2-1.1-2.9c-0.7-0.7-1.7-1.1-3-1.1c-1.3,0-2.3,0.4-3,1.1c-0.7,0.7-1.1,1.8-1.1,3.3
			c0,1.4,0.3,2.4,1,3.2c0.7,0.7,1.7,1.1,3,1.1c1.2,0,2.3-0.4,3.1-1.2c0.7-0.7,1.1-1.6,1.1-2.7V30.2z"/>
		<path class="st0" d="M82.8,39V15.8h11.5c3.5,0,6.1,0.7,7.8,2c1.7,1.3,2.6,3.3,2.6,6c0,2.7-0.9,4.7-2.7,6.1c-1.8,1.3-4.5,2-8.1,2
			h-4.5V39H82.8z M93.8,26.7c1.5,0,2.5-0.2,3.2-0.7c0.7-0.5,1-1.2,1-2.3c0-1-0.3-1.7-1-2.2c-0.7-0.5-1.7-0.7-3.2-0.7h-4.4v5.8H93.8z
			"/>
		<path class="st0" d="M108.2,39V15.8h6.4V39H108.2z"/>
		<path class="st0" d="M132.3,39v-2.4c-1.8,1.9-4,2.9-6.6,2.9c-2.1,0-3.7-0.6-4.9-1.7c-1.2-1.1-1.8-2.7-1.8-4.8V21.9h6.4v9.9
			c0,1,0.2,1.7,0.7,2.1c0.5,0.5,1.1,0.7,2.1,0.7c1,0,2-0.4,2.8-1.1c0.3-0.3,0.6-0.7,0.8-1.1c0.2-0.4,0.3-0.9,0.3-1.3v-9.2h6.4V39
			H132.3z"/>
		<path class="st0" d="M155.1,27.2c-0.2-0.6-0.6-1.1-1.1-1.3c-0.6-0.3-1.3-0.4-2.3-0.4c-1,0-1.7,0.1-2.3,0.3c-0.5,0.2-0.8,0.6-0.8,1
			c0,0.4,0.2,0.7,0.6,0.9c0.4,0.2,1.1,0.4,2.2,0.5l2.3,0.3c2,0.3,3.6,0.6,4.7,1.1c1.1,0.4,1.9,1,2.3,1.7c0.5,0.7,0.7,1.6,0.7,2.7
			c0,1.8-0.8,3.2-2.4,4.2c-1.6,1-3.9,1.4-7,1.4c-3.2,0-5.6-0.5-7.3-1.5c-1.6-1-2.6-2.5-2.8-4.5h6c0.4,1.3,1.7,1.9,3.9,1.9
			c1,0,1.8-0.1,2.4-0.3c0.5-0.2,0.8-0.6,0.8-1c0-0.4-0.2-0.7-0.6-0.9c-0.4-0.2-1.1-0.4-2.2-0.5l-2.1-0.3c-1.9-0.3-3.4-0.6-4.5-1.1
			c-1.1-0.5-1.9-1.1-2.4-1.8c-0.5-0.7-0.7-1.6-0.7-2.7c0-1.7,0.8-3,2.4-4c1.6-0.9,3.9-1.4,6.7-1.4c2.8,0,5,0.4,6.5,1.2
			c1.5,0.8,2.5,2.1,2.9,3.9L155.1,27.2z"/>
	</g>
	<g>
		<path class="st1" d="M0.1,50.9v-6.4H3c1.2,0,2.2,0.3,2.8,0.8c0.6,0.5,1,1.3,1,2.4c0,1-0.3,1.8-1,2.4c-0.7,0.6-1.6,0.8-2.9,0.8H0.1
			z M2.9,49.7c0.8,0,1.4-0.2,1.8-0.5c0.4-0.3,0.6-0.8,0.6-1.5c0-1.3-0.7-2-2.2-2H1.5v4H2.9z"/>
		<path class="st1" d="M9.7,50.9v-6.4h1.4v6.4H9.7z"/>
		<path class="st1" d="M18.9,46.3c-0.1-0.3-0.3-0.5-0.6-0.7s-0.6-0.2-1-0.2c-0.5,0-0.9,0.1-1.2,0.2c-0.3,0.1-0.4,0.3-0.4,0.5
			c0,0.2,0.1,0.4,0.2,0.5c0.2,0.1,0.5,0.2,0.9,0.3l1.3,0.2c0.8,0.1,1.4,0.3,1.7,0.7c0.4,0.3,0.5,0.7,0.5,1.3c0,0.6-0.3,1.1-0.8,1.4
			c-0.5,0.3-1.3,0.5-2.3,0.5c-0.7,0-1.3-0.1-1.8-0.3c-0.5-0.2-0.8-0.4-1.1-0.8c-0.2-0.3-0.4-0.8-0.4-1.3h1.4
			c0.1,0.4,0.2,0.7,0.5,0.9c0.3,0.2,0.7,0.3,1.3,0.3c0.5,0,0.9-0.1,1.2-0.2c0.3-0.1,0.4-0.3,0.4-0.6c0-0.2-0.1-0.4-0.3-0.5
			c-0.2-0.1-0.5-0.2-0.8-0.3l-1.1-0.2c-0.9-0.1-1.5-0.3-1.9-0.7c-0.4-0.3-0.6-0.8-0.6-1.3c0-0.4,0.1-0.7,0.4-1s0.6-0.5,1-0.7
			c0.5-0.2,1-0.2,1.6-0.2c0.9,0,1.5,0.1,2,0.4c0.5,0.3,0.8,0.7,0.9,1.4L18.9,46.3z"/>
		<path class="st1" d="M25.2,50.9v-5.2h-2.5v-1.2h6.5v1.2h-2.5v5.2H25.2z"/>
		<path class="st1" d="M36.5,50.9l-1.4-2.4h-1.9v2.4h-1.4v-6.4H35c1.8,0,2.7,0.7,2.7,2c0,0.4-0.1,0.8-0.3,1.1s-0.5,0.5-0.9,0.7
			l1.6,2.7H36.5z M34.8,47.4c0.5,0,0.8-0.1,1-0.2c0.2-0.1,0.3-0.4,0.3-0.7c0-0.3-0.1-0.5-0.3-0.7c-0.2-0.1-0.6-0.2-1-0.2h-1.7v1.8
			H34.8z"/>
		<path class="st1" d="M40.7,50.9v-6.4h1.4v6.4H40.7z"/>
		<path class="st1" d="M45.6,50.9v-6.4h3.1c1.8,0,2.6,0.6,2.6,1.7c0,0.7-0.3,1.1-1,1.4c0.9,0.3,1.3,0.8,1.3,1.5
			c0,0.6-0.2,1.1-0.7,1.4c-0.5,0.3-1.1,0.5-2,0.5H45.6z M48.7,47c0.4,0,0.7-0.1,0.9-0.2c0.2-0.1,0.3-0.3,0.3-0.6
			c0-0.3-0.1-0.4-0.3-0.5c-0.2-0.1-0.5-0.2-1-0.2h-1.7V47H48.7z M48.7,49.8c0.5,0,0.9-0.1,1.1-0.2s0.3-0.4,0.3-0.7
			c0-0.3-0.1-0.5-0.3-0.7s-0.6-0.2-1.1-0.2h-1.8v1.7H48.7z"/>
		<path class="st1" d="M59.4,44.5h1.4v3.7c0,1-0.3,1.7-0.8,2.1c-0.5,0.5-1.3,0.7-2.4,0.7c-1.1,0-1.8-0.2-2.4-0.7
			c-0.5-0.5-0.8-1.2-0.8-2.1v-3.7h1.4v3.8c0,0.6,0.1,1,0.4,1.2c0.3,0.3,0.7,0.4,1.3,0.4c0.6,0,1-0.1,1.3-0.4
			c0.3-0.3,0.4-0.7,0.4-1.2V44.5z"/>
		<path class="st1" d="M64.1,50.9v-6.4h1.4v6.4H64.1z"/>
		<path class="st1" d="M68.9,50.9v-6.4h2.9c1.2,0,2.2,0.3,2.8,0.8c0.6,0.5,1,1.3,1,2.4c0,1-0.3,1.8-1,2.4c-0.7,0.6-1.6,0.8-2.9,0.8
			H68.9z M71.7,49.7c0.8,0,1.4-0.2,1.8-0.5c0.4-0.3,0.6-0.8,0.6-1.5c0-1.3-0.7-2-2.2-2h-1.5v4H71.7z"/>
		<path class="st1" d="M85.7,47.7c0,0.7-0.1,1.3-0.4,1.8c-0.3,0.5-0.7,0.9-1.3,1.2c-0.6,0.3-1.2,0.4-2,0.4c-0.7,0-1.4-0.1-1.9-0.4
			c-0.6-0.3-1-0.7-1.3-1.2c-0.3-0.5-0.5-1.1-0.5-1.8c0-0.7,0.1-1.3,0.4-1.8c0.3-0.5,0.7-0.9,1.3-1.2c0.6-0.3,1.2-0.4,2-0.4
			c0.7,0,1.4,0.1,1.9,0.4c0.6,0.3,1,0.7,1.3,1.2C85.6,46.4,85.7,47,85.7,47.7z M84.2,47.7c0-0.7-0.2-1.2-0.6-1.6
			c-0.4-0.4-0.9-0.6-1.6-0.6c-0.7,0-1.2,0.2-1.6,0.6c-0.4,0.4-0.6,0.9-0.6,1.6c0,0.7,0.2,1.2,0.6,1.6c0.4,0.4,0.9,0.6,1.6,0.6
			c0.7,0,1.2-0.2,1.6-0.6C84,48.9,84.2,48.3,84.2,47.7z"/>
		<path class="st1" d="M93.4,50.9L92,48.5h-1.9v2.4h-1.4v-6.4h3.1c1.8,0,2.7,0.7,2.7,2c0,0.4-0.1,0.8-0.3,1.1s-0.5,0.5-0.9,0.7
			l1.6,2.7H93.4z M91.7,47.4c0.5,0,0.8-0.1,1-0.2c0.2-0.1,0.3-0.4,0.3-0.7c0-0.3-0.1-0.5-0.3-0.7c-0.2-0.1-0.6-0.2-1-0.2h-1.7v1.8
			H91.7z"/>
		<path class="st1" d="M102.9,50.9l-0.6-1.5h-3.2l-0.6,1.5H97l2.9-6.4h1.6l2.9,6.4H102.9z M100.7,45.7l-1.1,2.6h2.3L100.7,45.7z"/>
	</g>
	<g>
		<g>
			<g>
				<path class="st1" d="M181.1,20.2c-2.6,0-5.1,1-6.9,2.9c-1.9,1.9-2.9,4.3-2.9,6.9c0,5.4,4.4,9.8,9.8,9.8l4,0l0-19.6L181.1,20.2z"
					/>
			</g>
			<g>
				<path class="st1" d="M188.4,47c0,5.4,4.4,9.8,9.8,9.8c2.6,0,5.1-1,6.9-2.9c1.9-1.9,2.9-4.3,2.9-6.9l0-4l-19.6,0L188.4,47z"/>
			</g>
			<g>
				<path class="st1" d="M224.3,20.8c-2.5-2.5-5.7-3.8-9.2-3.8h-4v-4c0-3.5-1.4-6.7-3.8-9.2c-2.5-2.5-5.7-3.8-9.2-3.8
					c-3.5,0-6.7,1.4-9.2,3.8c-2.5,2.5-3.8,5.7-3.8,9.2v4h-4c-3.5,0-6.7,1.4-9.2,3.8c-2.5,2.5-3.8,5.7-3.8,9.2c0,3.6,1.5,6.8,3.8,9.2
					c2.4,2.4,5.6,3.8,9.2,3.8h4v4c0,3.6,1.5,6.8,3.8,9.2c2.4,2.4,5.6,3.8,9.2,3.8c3.5,0,6.7-1.4,9.2-3.8c2.5-2.5,3.8-5.7,3.8-9.2v-4
					h4c3.5,0,6.7-1.4,9.2-3.8c2.5-2.5,3.8-5.7,3.8-9.2C228.1,26.5,226.8,23.3,224.3,20.8z M190,8.9c0.7,0,1.2,0.6,1.2,1.4l0,0.5
					c0,0.8-0.6,1.4-1.2,1.4c-0.3,0-0.6-0.2-0.9-0.4c-0.2-0.2-0.4-0.6-0.4-1l0-0.5C188.8,9.5,189.4,8.9,190,8.9z M188.8,14.6
					c0-0.7,0.6-1.2,1.2-1.2c0.7,0,1.2,0.6,1.2,1.2l0,0.9l0,2.9l0,5.8c0,0.7-0.6,1.2-1.2,1.2c-0.3,0-0.7-0.1-0.9-0.4
					c-0.2-0.2-0.4-0.5-0.4-0.9v-5.8v-2.9V14.6z M213.5,39.6h-0.9h-2.9h-5.8c-0.3,0-0.7-0.1-0.9-0.4c-0.2-0.2-0.4-0.5-0.4-0.9
					c0-0.7,0.6-1.2,1.2-1.2l5.8,0l2.9,0l0.9,0c0.7,0,1.2,0.6,1.2,1.2C214.8,39.1,214.2,39.6,213.5,39.6z M218.1,39.6l-0.5,0
					c-0.4,0-0.7-0.1-1-0.4c-0.2-0.2-0.4-0.5-0.4-0.9c0-0.7,0.6-1.2,1.4-1.2l0.5,0c0.8,0,1.4,0.6,1.4,1.2
					C219.5,39.1,218.9,39.6,218.1,39.6z"/>
			</g>
		</g>
		<g>
			<path class="st2" d="M185.1,20.2l-4,0c-2.6,0-5.1,1-6.9,2.9c-1.9,1.9-2.9,4.3-2.9,6.9c0,5.4,4.4,9.8,9.8,9.8l4,0L185.1,20.2z"/>
		</g>
		<g>
			<path class="st2" d="M207.9,43l-19.6,0l0,4c0,5.4,4.4,9.8,9.8,9.8c2.6,0,5.1-1,6.9-2.9c1.9-1.9,2.9-4.3,2.9-6.9L207.9,43z"/>
		</g>
	</g>
</g>
</svg>
