<?xml version="1.0" encoding="UTF-8"?>
<svg width="180px" height="62px" viewBox="0 0 180 62" version="1.1" xmlns="http://www.w3.org/2000/svg" xmlns:xlink="http://www.w3.org/1999/xlink">
    <title>logoOne</title>
    <g id="Page-1" stroke="none" stroke-width="1" fill="none" fill-rule="evenodd">
        <g id="logoOne">
            <g id="medplus" transform="translate(70.937099, 17.098845)" fill="#3A2D7B">
                <polygon id="Fill-1" points="11.647086 0.138985879 7.68593068 8.49038511 3.70559692 0.138985879 4.59709292e-14 0.138985879 4.59709292e-14 14.2799615 3.07247754 14.2799615 3.07247754 5.30861361 6.57912709 12.8693068 8.77355584 12.8693068 12.2804365 5.30861361 12.2804365 14.2799615 15.3332734 14.2799615 15.3332734 0.138985879"></polygon>
                <polygon id="Fill-2" points="23.5400719 11.4458511 23.5400719 8.59681386 30.2566829 8.59681386 30.2566829 5.76256483 23.5400719 5.76256483 23.5400719 2.97314249 30.9919332 2.97314249 30.9919332 0.138893453 20.1695199 0.138893453 20.1695199 14.2801001 31.2105212 14.2801001 31.2105212 11.4458511"></polygon>
                <path d="M38.8014608,3.01309371 L41.3884698,3.01309371 C43.739561,3.01309371 45.4459795,4.78629012 45.4459795,7.22934531 C45.4459795,9.6885751 43.8345289,11.4060847 41.5275712,11.4060847 L38.8014608,11.4060847 L38.8014608,3.01309371 Z M41.4480847,0.138870347 L35.4309089,0.138870347 L35.4309089,14.280077 L41.3288549,14.280077 C45.7729371,14.280077 48.8766085,11.3725802 48.8766085,7.20947368 C48.8766085,3.04636714 45.821923,0.138870347 41.4480847,0.138870347 L41.4480847,0.138870347 Z" id="Fill-3"></path>
                <path d="M61.1843338,5.18270603 C61.1843338,7.05803338 59.755887,7.45153787 58.5575815,7.45153787 L56.0699307,7.45153787 L56.0699307,2.97302696 L58.5575815,2.97302696 C59.755887,2.97302696 61.1843338,3.35636457 61.1843338,5.18270603 M58.7165546,0.139008986 L52.6993787,0.139008986 L52.6993787,14.2799846 L56.0699307,14.2799846 L56.0699307,10.3058896 L58.7165546,10.3058896 C62.3260282,10.3058896 64.3961438,8.40237227 64.3961438,5.08311682 C64.3961438,1.94108858 62.3260282,0.139008986 58.7165546,0.139008986" id="Fill-5"></path>
                <polygon id="Fill-7" points="71.5299204 11.306611 71.5299204 0.138985879 68.1593684 0.138985879 68.1593684 14.2799615 77.4914095 14.2799615 77.4914095 11.306611"></polygon>
                <path d="M90.2757997,0.138870347 L90.2757997,8.34215661 C90.2757997,10.2567651 89.1322567,11.445828 87.2915892,11.445828 C85.4303569,11.445828 84.2276611,10.2276508 84.2276611,8.34215661 L84.2276611,0.138870347 L80.856878,0.138870347 L80.856878,8.34215661 C80.856878,12.0905006 83.3225777,14.4191784 87.2915892,14.4191784 C91.2116149,14.4191784 93.6465828,12.0905006 93.6465828,8.34215661 L93.6465828,0.138870347 L90.2757997,0.138870347 Z" id="Fill-9"></path>
                <path d="M104.202,5.69922978 C102.749985,5.27730424 101.495992,4.91291399 101.495992,3.93088575 C101.495992,3.01263158 102.652013,2.91350449 103.148804,2.91350449 C104.264157,2.91350449 106.021178,3.49509628 107.421897,4.32808729 L107.531653,4.39347882 L108.839946,1.58395379 L108.756531,1.52919127 C107.299664,0.571655969 105.300023,-4.9254567e-14 103.407597,-4.9254567e-14 C100.065928,-4.9254567e-14 97.9066213,1.65997433 97.9066213,4.22896021 C97.9066213,7.16580231 100.486236,7.88464698 102.559125,8.46231065 C104.039792,8.87476252 105.318508,9.23106547 105.318508,10.2498331 C105.318508,11.022516 104.60752,11.4656996 103.367623,11.4656996 C101.873553,11.4656996 99.8787651,10.6195379 98.5164031,9.40829268 L98.4024878,9.30708601 L97.044285,12.0879589 L97.1129114,12.1459564 C98.7613325,13.5443646 101.084465,14.3792041 103.327648,14.3792041 C106.705363,14.3792041 108.888049,12.6880359 108.888049,10.0714506 C108.900023,7.06459564 106.295222,6.30739409 104.202,5.69922978" id="Fill-11"></path>
            </g>
            <g id="dist" transform="translate(70.937099, 38.818999)" fill="#AA4DBD">
                <path d="M1.48043646,4.70761232 L2.53686778,4.70761232 C3.44333761,4.70761232 4.09216945,4.00933248 4.09216945,2.98617458 C4.09216945,1.95469833 3.41006418,1.24740693 2.47032092,1.24740693 L1.48043646,1.24740693 L1.48043646,4.70761232 Z M2.50359435,0.0664313222 C4.3334018,0.0664313222 5.59756098,1.24740693 5.59756098,2.97785623 C5.59756098,4.69929397 4.31653402,5.88858793 2.44536585,5.88858793 L4.59709292e-14,5.88858793 L4.59709292e-14,0.0664313222 L2.50359435,0.0664313222 Z" id="Fill-13"></path>
                <polygon id="Fill-15" points="8.4596534 5.88868036 9.94008986 5.88868036 9.94008986 0.0665237484 8.4596534 0.0665237484"></polygon>
                <path d="M17.7174069,0.648831836 L17.160077,1.80485237 C16.5447497,1.44716303 15.7711425,1.19761232 15.2969961,1.19761232 C14.9145828,1.19761232 14.6567137,1.33902439 14.6567137,1.62184852 C14.6567137,2.62813864 17.7340436,2.05440308 17.7340436,4.15848524 C17.7340436,5.3230552 16.7025674,5.93884467 15.4051348,5.93884467 C14.4321181,5.93884467 13.4339153,5.57283697 12.7437227,5.00695764 L13.3174583,3.86780488 C13.91638,4.39139923 14.8145315,4.74077022 15.4217715,4.74077022 C15.8875995,4.74077022 16.178742,4.56608472 16.178742,4.23381258 C16.178742,3.20210526 13.101181,3.81766367 13.101181,1.75494223 C13.101181,0.682336329 14.0245186,-8.04491262e-14 15.4217715,-8.04491262e-14 C16.2619255,-8.04491262e-14 17.1184852,0.258100128 17.7174069,0.648831836" id="Fill-17"></path>
                <polygon id="Fill-18" points="23.3157766 1.25584082 23.3157766 5.88893453 21.8353402 5.88893453 21.8353402 1.25584082 20.0970347 1.25584082 20.0970347 0.0582284981 25.0709499 0.0582284981 25.0709499 1.25584082"></polygon>
                <path d="M30.3862875,3.08562516 C31.026801,3.08562516 31.4013582,2.76167137 31.4013582,2.14611297 C31.4013582,1.53910398 31.026801,1.23132478 30.3862875,1.23132478 L29.2637715,1.23132478 L29.2637715,3.08562516 L30.3862875,3.08562516 Z M30.4281104,4.25019512 L30.3862875,4.25019512 L29.2637715,4.25019512 L29.2637715,5.88868036 L27.7828729,5.88868036 L27.7828729,0.0667548139 L30.3862875,0.0667548139 C31.9249525,0.0667548139 32.8069294,0.798770218 32.8069294,2.09597176 C32.8069294,2.98580488 32.4323723,3.62631836 31.750267,3.96713992 L32.9730655,5.88868036 L31.2929884,5.88868036 L30.4281104,4.25019512 Z" id="Fill-19"></path>
                <polygon id="Fill-20" points="35.8850449 5.88868036 37.3654814 5.88868036 37.3654814 0.0665237484 35.8850449 0.0665237484"></polygon>
                <path d="M42.0821746,4.74911168 L43.2797869,4.74911168 C43.8287985,4.74911168 44.1698511,4.50787933 44.1698511,4.09196149 C44.1698511,3.70122978 43.8287985,3.45999743 43.2797869,3.45999743 L42.0821746,3.45999743 L42.0821746,4.74911168 Z M42.0821746,2.39524775 L43.2797869,2.39524775 C43.7123415,2.39524775 43.9868472,2.16279589 43.9868472,1.78846983 C43.9868472,1.41391271 43.7123415,1.19763543 43.2797869,1.19763543 L42.0821746,1.19763543 L42.0821746,2.39524775 Z M43.3629705,0.066338896 C44.6684904,0.066338896 45.5005571,0.632449294 45.5005571,1.52205135 C45.5005571,2.13737869 45.1179127,2.62816175 44.5025854,2.80284724 C45.2343697,2.94425931 45.7001977,3.51822593 45.7001977,4.27496534 C45.7001977,5.26484981 44.8350886,5.88895764 43.4627908,5.88895764 L40.6098254,5.88895764 L40.6098254,0.066338896 L43.3629705,0.066338896 Z" id="Fill-21"></path>
                <path d="M53.8768883,3.4432914 C53.8768883,4.98195635 52.8539615,5.95520411 51.2240257,5.95520411 C49.5850783,5.95520411 48.5374275,4.98195635 48.5374275,3.4432914 L48.5374275,0.0667317073 L50.0176329,0.0667317073 L50.0176329,3.4432914 C50.0176329,4.2335353 50.5250526,4.71623107 51.232344,4.71623107 C51.9306239,4.71623107 52.4047702,4.2335353 52.4047702,3.4432914 L52.4047702,0.0667317073 L53.8768883,0.0667317073 L53.8768883,3.4432914 Z" id="Fill-22"></path>
                <polygon id="Fill-23" points="57.0217587 5.88868036 58.5021951 5.88868036 58.5021951 0.0665237484 57.0217587 0.0665237484"></polygon>
                <path d="M63.2271374,4.70761232 L64.2835687,4.70761232 C65.1900385,4.70761232 65.8388703,4.00933248 65.8388703,2.98617458 C65.8388703,1.95469833 65.1569961,1.24740693 64.2170218,1.24740693 L63.2271374,1.24740693 L63.2271374,4.70761232 Z M64.2502953,0.0664313222 C66.0803338,0.0664313222 67.3442619,1.24740693 67.3442619,2.97785623 C67.3442619,4.69929397 66.0632349,5.88858793 64.1920668,5.88858793 L61.7467009,5.88858793 L61.7467009,0.0664313222 L64.2502953,0.0664313222 Z" id="Fill-24"></path>
                <path d="M71.2295815,2.97753273 C71.2295815,3.95909884 71.9863209,4.71583825 72.8763851,4.71583825 C73.7749987,4.71583825 74.4899153,3.95909884 74.4899153,2.97753273 C74.4899153,1.99619769 73.7749987,1.25586393 72.8763851,1.25586393 C71.9782336,1.25586393 71.2295815,1.99619769 71.2295815,2.97753273 M76.0119435,2.96921438 C76.0119435,4.66639024 74.6646008,5.95550449 72.8599795,5.95550449 C71.0632144,5.95550449 69.7158716,4.6747086 69.7158716,2.96921438 C69.7158716,1.27250064 71.0632144,0.0168908858 72.8599795,0.0168908858 C74.6646008,0.0168908858 76.0119435,1.280819 76.0119435,2.96921438" id="Fill-25"></path>
                <path d="M81.4774737,3.08562516 C82.1179872,3.08562516 82.4925443,2.76167137 82.4925443,2.14611297 C82.4925443,1.53910398 82.1179872,1.23132478 81.4774737,1.23132478 L80.3549576,1.23132478 L80.3549576,3.08562516 L81.4774737,3.08562516 Z M81.5192965,4.25019512 L81.4774737,4.25019512 L80.3549576,4.25019512 L80.3549576,5.88868036 L78.8740591,5.88868036 L78.8740591,0.0667548139 L81.4774737,0.0667548139 C83.0161386,0.0667548139 83.8981155,0.798770218 83.8981155,2.09597176 C83.8981155,2.98580488 83.5235584,3.62631836 82.8414531,3.96713992 L84.0642516,5.88868036 L82.3841746,5.88868036 L81.5192965,4.25019512 Z" id="Fill-26"></path>
                <path d="M89.5796688,1.53880359 L88.7311964,3.69279589 L90.4117356,3.69279589 L89.5796688,1.53880359 Z M88.2988729,4.81600513 L87.8746367,5.88861104 L86.3526085,5.88861104 L88.8642901,0.0664544288 L90.3865494,0.0664544288 L92.8400026,5.88861104 L91.2597458,5.88861104 L90.8442901,4.81600513 L88.2988729,4.81600513 Z" id="Fill-27"></path>
            </g>
            <g id="plus">
                <g id="horizontal" transform="translate(0.000000, 17.098845)">
                    <path d="M15.3424005,1.08462131 L46.6178049,1.08462131 C50.1341592,1.08462131 53.3286393,2.52184852 55.6436842,4.83689345 C57.958267,7.15147625 59.3952632,10.3471117 59.3952632,13.8625417 C59.3952632,17.3782028 57.958267,20.5733761 55.6436842,22.8879589 C53.3286393,25.2020796 50.1341592,26.64 46.6178049,26.64 L15.3424005,26.64 C11.8267394,26.64 8.63156611,25.2020796 6.31652118,22.8879589 C4.00216945,20.5733761 2.56494223,17.3782028 2.56494223,13.8625417 C2.56494223,10.3471117 4.00216945,7.15147625 6.31652118,4.83689345 C8.63156611,2.52184852 11.8267394,1.08462131 15.3424005,1.08462131" id="Fill-28" fill="#FFFFFF"></path>
                    <path d="M48.4347189,7.01041078 C52.2784929,7.01041078 57.0310475,10.4870218 57.1632169,14.726611 C57.2956175,18.9666624 53.0643466,24.1716431 48.4347189,24.090077 L20.2967214,24.090077 L20.2967214,7.01041078 L48.4347189,7.01041078 Z" id="Fill-29" fill="#3A2D7B"></path>
                    <path d="M12.8359872,7.01041078 C8.99221309,7.01041078 4.23965854,10.4870218 4.10748909,14.726611 C3.97508858,18.9666624 8.20635944,24.1716431 12.8359872,24.090077 L18.7133684,24.090077 L18.7133684,7.01041078 L12.8359872,7.01041078 Z" id="Fill-30" fill="#BFB8E5"></path>
                    <path d="M13.8736329,4.27101412 C11.2378691,4.27101412 8.84033376,5.35078306 7.10064185,7.08978177 C5.3618742,8.82901155 4.28164313,11.2265469 4.28164313,13.8625417 C4.28164313,16.4976123 5.3618742,18.8953787 7.10064185,20.6350706 C8.84033376,22.3745315 11.2378691,23.4540693 13.8736329,23.4540693 L16.9620539,23.4540693 L16.9620539,4.27101412 L13.8736329,4.27101412 Z M47.8032863,4.27101412 L21.2323748,4.27101412 L21.2323748,23.4540693 L47.8032863,23.4540693 C50.4392811,23.4540693 52.8368164,22.3745315 54.5758151,20.6350706 C56.3157381,18.8953787 57.3955071,16.4976123 57.3955071,13.8625417 C57.3955071,11.2265469 56.3157381,8.82901155 54.5758151,7.08978177 C52.8368164,5.35078306 50.4392811,4.27101412 47.8032863,4.27101412 L47.8032863,4.27101412 Z M13.8620796,4.26872914e-14 L47.791733,4.26872914e-14 C51.6066239,4.26872914e-14 55.0721438,1.55946085 57.5835944,4.07091142 C60.0948139,6.58189987 61.6538126,10.0488062 61.6538126,13.8625417 C61.6538126,17.6765083 60.0948139,21.1429525 57.5835944,23.6539409 C55.0721438,26.1644673 51.6066239,27.7241592 47.791733,27.7241592 L13.8620796,27.7241592 C10.0478819,27.7241592 6.58166881,26.1644673 4.06998716,23.6539409 C1.55946085,21.1429525 6.56727561e-15,17.6765083 6.56727561e-15,13.8625417 C6.56727561e-15,10.0488062 1.55946085,6.58189987 4.06998716,4.07091142 C6.58166881,1.55946085 10.0478819,4.26872914e-14 13.8620796,4.26872914e-14 L13.8620796,4.26872914e-14 Z" id="Fill-31" fill="#3A2D7B"></path>
                </g>
                <g id="vertical" transform="translate(17.098845, 0.000000)">
                    <path d="M1.08439024,46.3114352 L1.08439024,15.0362619 C1.08439024,11.5199076 2.52184852,8.32542747 4.83689345,6.01038254 C7.15147625,3.69556868 10.3468806,2.25880359 13.8623107,2.25880359 C17.3779718,2.25880359 20.5731451,3.69556868 22.8877279,6.01038254 C25.2020796,8.32542747 26.6397689,11.5199076 26.6397689,15.0362619 L26.6397689,46.3114352 C26.6397689,49.8270963 25.2020796,53.0222696 22.8877279,55.3373145 C20.5731451,57.6516662 17.3779718,59.0888935 13.8623107,59.0888935 C10.3468806,59.0888935 7.15147625,57.6516662 4.83689345,55.3373145 C2.52184852,53.0222696 1.08439024,49.8270963 1.08439024,46.3114352" id="Fill-32" fill="#FFFFFF"></path>
                    <path d="M7.01029525,13.2192092 C7.01029525,9.37543517 10.4869063,4.62288062 14.7264955,4.49071117 C18.9665469,4.35831065 24.1712965,8.58958151 24.0899615,13.2192092 L24.0899615,41.3567445 L7.01029525,41.3567445 L7.01029525,13.2192092 Z" id="Fill-33" fill="#3A2D7B"></path>
                    <path d="M7.01029525,48.8179409 C7.01029525,52.661715 10.4869063,57.4142696 14.7264955,57.546208 C18.9665469,57.6788395 24.1712965,53.4475687 24.0899615,48.8179409 L24.0899615,42.9403286 L7.01029525,42.9403286 L7.01029525,48.8179409 Z" id="Fill-34" fill="#BFB8E5"></path>
                    <path d="M4.27078306,47.7801797 C4.27078306,50.4157125 5.35055199,52.8134788 7.08955071,54.5531707 C8.82878049,56.2917073 11.2263158,57.3721694 13.8623107,57.3721694 C16.4976123,57.3721694 18.8951476,56.2917073 20.6348395,54.5531707 C22.3743004,52.8134788 23.4538383,50.4157125 23.4538383,47.7801797 L23.4538383,44.6919897 L4.27078306,44.6919897 L4.27078306,47.7801797 Z M4.27078306,13.8505263 L4.27078306,40.4214377 L23.4538383,40.4214377 L23.4538383,13.8505263 C23.4538383,11.2143004 22.3743004,8.81676508 20.6348395,7.07776637 C18.8951476,5.33807445 16.4976123,4.25807445 13.8623107,4.25807445 C11.2263158,4.25807445 8.82878049,5.33807445 7.08955071,7.07776637 C5.35055199,8.81676508 4.27078306,11.2143004 4.27078306,13.8505263 L4.27078306,13.8505263 Z M-8.20909451e-15,47.791733 L-8.20909451e-15,13.8620796 C-8.20909451e-15,10.0471887 1.55922978,6.58166881 4.07068036,4.07021823 C6.58189987,1.55899872 10.0485751,-1.51047339e-13 13.8623107,-1.51047339e-13 C17.6762773,-1.51047339e-13 21.1427214,1.55899872 23.6537099,4.07021823 C26.1644673,6.58166881 27.7241592,10.0471887 27.7241592,13.8620796 L27.7241592,47.791733 C27.7241592,51.6059307 26.1644673,55.0723748 23.6537099,57.5838254 C21.1427214,60.0943517 17.6762773,61.6538126 13.8623107,61.6538126 C10.0485751,61.6538126 6.58189987,60.0943517 4.07068036,57.5838254 C1.55922978,55.0723748 -8.20909451e-15,51.6059307 -8.20909451e-15,47.791733 L-8.20909451e-15,47.791733 Z" id="Fill-35" fill="#3A2D7B"></path>
                </g>
            </g>
        </g>
    </g>
</svg>