<?xml version="1.0" encoding="UTF-8"?>
<svg width="228px" height="79px" viewBox="0 0 228 79" version="1.1" xmlns="http://www.w3.org/2000/svg" xmlns:xlink="http://www.w3.org/1999/xlink">
    <title>brand_logo copy</title>
    <g id="Page-1" stroke="none" stroke-width="1" fill="none" fill-rule="evenodd">
        <g id="brand_logo-copy">
            <g id="medplus" transform="translate(89.853659, 21.658537)" fill="#FFFFFF">
                <polygon id="Fill-1" points="14.7529756 0.17604878 9.7355122 10.7544878 4.6937561 0.17604878 5.82298437e-14 0.17604878 5.82298437e-14 18.0879512 3.89180488 18.0879512 3.89180488 6.7242439 8.33356098 16.301122 11.1131707 16.301122 15.5552195 6.7242439 15.5552195 18.0879512 19.4221463 18.0879512 19.4221463 0.17604878"></polygon>
                <polygon id="Fill-2" points="29.8174244 14.498078 29.8174244 10.8892976 38.3251317 10.8892976 38.3251317 7.29924878 29.8174244 7.29924878 29.8174244 3.76598049 39.2564488 3.76598049 39.2564488 0.175931707 25.5480585 0.175931707 25.5480585 18.0881268 39.5333268 18.0881268 39.5333268 14.498078"></polygon>
                <path d="M49.1485171,3.81658537 L52.4253951,3.81658537 C55.4034439,3.81658537 57.5649073,6.06263415 57.5649073,9.15717073 C57.5649073,12.2721951 55.5237366,14.4477073 52.6015902,14.4477073 L49.1485171,14.4477073 L49.1485171,3.81658537 Z M52.5009073,0.175902439 L44.8791512,0.175902439 L44.8791512,18.0880976 L52.3498829,18.0880976 C57.9790537,18.0880976 61.9103707,14.4052683 61.9103707,9.132 C61.9103707,3.85873171 58.0411024,0.175902439 52.5009073,0.175902439 L52.5009073,0.175902439 Z" id="Fill-3"></path>
                <path d="M77.5001561,6.56476098 C77.5001561,8.94017561 75.6907902,9.43861463 74.1729366,9.43861463 L71.0219122,9.43861463 L71.0219122,3.76583415 L74.1729366,3.76583415 C75.6907902,3.76583415 77.5001561,4.25139512 77.5001561,6.56476098 M74.3743024,0.176078049 L66.7525463,0.176078049 L66.7525463,18.0879805 L71.0219122,18.0879805 L71.0219122,13.0541268 L74.3743024,13.0541268 C78.9463024,13.0541268 81.5684488,10.6430049 81.5684488,6.43861463 C81.5684488,2.4587122 78.9463024,0.176078049 74.3743024,0.176078049" id="Fill-5"></path>
                <polygon id="Fill-7" points="90.6045659 14.3217073 90.6045659 0.17604878 86.3352 0.17604878 86.3352 18.0879512 98.1557854 18.0879512 98.1557854 14.3217073"></polygon>
                <path d="M114.349346,0.175902439 L114.349346,10.5667317 C114.349346,12.9919024 112.900859,14.4980488 110.569346,14.4980488 C108.211785,14.4980488 106.688371,12.9550244 106.688371,10.5667317 L106.688371,0.175902439 L102.418712,0.175902439 L102.418712,10.5667317 C102.418712,15.3146341 105.541932,18.2642927 110.569346,18.2642927 C115.534712,18.2642927 118.619005,15.3146341 118.619005,10.5667317 L118.619005,0.175902439 L114.349346,0.175902439 Z" id="Fill-9"></path>
                <path d="M131.9892,7.21902439 C130.14998,6.68458537 128.56159,6.22302439 128.56159,4.97912195 C128.56159,3.816 130.025883,3.69043902 130.655151,3.69043902 C132.067932,3.69043902 134.293493,4.42712195 136.067737,5.4822439 L136.206761,5.56507317 L137.863932,2.00634146 L137.758273,1.93697561 C135.912907,0.724097561 133.380029,-6.23891183e-14 130.982956,-6.23891183e-14 C126.750176,-6.23891183e-14 124.015054,2.10263415 124.015054,5.35668293 C124.015054,9.07668293 127.282566,9.98721951 129.908224,10.7189268 C131.783737,11.2413659 133.403444,11.6926829 133.403444,12.983122 C133.403444,13.9618537 132.502859,14.5232195 130.932322,14.5232195 C129.039834,14.5232195 126.513102,13.4514146 124.787444,11.9171707 L124.643151,11.7889756 L122.922761,15.3114146 L123.009688,15.384878 C125.097688,17.1561951 128.040322,18.2136585 130.881688,18.2136585 C135.160127,18.2136585 137.924862,16.0715122 137.924862,12.7571707 C137.940029,8.9484878 134.640615,7.98936585 131.9892,7.21902439" id="Fill-11"></path>
            </g>
            <g id="dist" transform="translate(89.853659, 49.170732)" fill="#FFFFFF">
                <path d="M1.87521951,5.96297561 L3.21336585,5.96297561 C4.36156098,5.96297561 5.18341463,5.0784878 5.18341463,3.7824878 C5.18341463,2.47595122 4.31941463,1.58004878 3.12907317,1.58004878 L1.87521951,1.58004878 L1.87521951,5.96297561 Z M3.17121951,0.0841463415 C5.48897561,0.0841463415 7.0902439,1.58004878 7.0902439,3.77195122 C7.0902439,5.95243902 5.46760976,7.45887805 3.09746341,7.45887805 L-1.42108547e-14,7.45887805 L-1.42108547e-14,0.0841463415 L3.17121951,0.0841463415 Z" id="Fill-13"></path>
                <polygon id="Fill-15" points="10.715561 7.45899512 12.5907805 7.45899512 12.5907805 0.0842634146 10.715561 0.0842634146"></polygon>
                <path d="M22.4420488,0.821853659 L21.7360976,2.28614634 C20.9566829,1.83307317 19.9767805,1.51697561 19.3761951,1.51697561 C18.8918049,1.51697561 18.5651707,1.69609756 18.5651707,2.05434146 C18.5651707,3.32897561 22.463122,2.6022439 22.463122,5.26741463 C22.463122,6.74253659 21.1565854,7.52253659 19.5131707,7.52253659 C18.2806829,7.52253659 17.0162927,7.05892683 16.1420488,6.34214634 L16.8687805,4.89921951 C17.6274146,5.56243902 18.7650732,6.00497561 19.5342439,6.00497561 C20.1242927,6.00497561 20.4930732,5.78370732 20.4930732,5.36282927 C20.4930732,4.056 16.5948293,4.83570732 16.5948293,2.22292683 C16.5948293,0.864292683 17.7643902,-2.84217094e-14 19.5342439,-2.84217094e-14 C20.598439,-2.84217094e-14 21.6834146,0.326926829 22.4420488,0.821853659" id="Fill-17"></path>
                <polygon id="Fill-18" points="29.5333171 1.59073171 29.5333171 7.45931707 27.6580976 7.45931707 27.6580976 1.59073171 25.4562439 1.59073171 25.4562439 0.0737560976 31.7565366 0.0737560976 31.7565366 1.59073171"></polygon>
                <path d="M38.4892976,3.90845854 C39.3006146,3.90845854 39.7750537,3.49811707 39.7750537,2.71840976 C39.7750537,1.94953171 39.3006146,1.55967805 38.4892976,1.55967805 L37.0674439,1.55967805 L37.0674439,3.90845854 L38.4892976,3.90845854 Z M38.5422732,5.38358049 L38.4892976,5.38358049 L37.0674439,5.38358049 L37.0674439,7.45899512 L35.191639,7.45899512 L35.191639,0.0845560976 L38.4892976,0.0845560976 C40.4382732,0.0845560976 41.5554439,1.01177561 41.5554439,2.65489756 C41.5554439,3.78201951 41.0810049,4.59333659 40.2170049,5.0250439 L41.7658829,7.45899512 L39.6377854,7.45899512 L38.5422732,5.38358049 Z" id="Fill-19"></path>
                <polygon id="Fill-20" points="45.4543902 7.45899512 47.3296098 7.45899512 47.3296098 0.0842634146 45.4543902 0.0842634146"></polygon>
                <path d="M53.3040878,6.01554146 L54.8210634,6.01554146 C55.516478,6.01554146 55.948478,5.70998049 55.948478,5.18315122 C55.948478,4.68822439 55.516478,4.38266341 54.8210634,4.38266341 L53.3040878,4.38266341 L53.3040878,6.01554146 Z M53.3040878,3.03398049 L54.8210634,3.03398049 C55.3689659,3.03398049 55.7166732,2.73954146 55.7166732,2.26539512 C55.7166732,1.7909561 55.3689659,1.51700488 54.8210634,1.51700488 L53.3040878,1.51700488 L53.3040878,3.03398049 Z M54.9264293,0.0840292683 C56.5800878,0.0840292683 57.634039,0.801102439 57.634039,1.92793171 C57.634039,2.70734634 57.1493561,3.32900488 56.3699415,3.55027317 C57.2968683,3.72939512 57.8869171,4.45641951 57.8869171,5.4149561 C57.8869171,6.66880976 56.7911122,7.45934634 55.0528683,7.45934634 L51.4391122,7.45934634 L51.4391122,0.0840292683 L54.9264293,0.0840292683 Z" id="Fill-21"></path>
                <path d="M68.2440585,4.36150244 C68.2440585,6.31047805 66.9483512,7.54325854 64.8837659,7.54325854 C62.8077659,7.54325854 61.4807415,6.31047805 61.4807415,4.36150244 L61.4807415,0.0845268293 L63.3556683,0.0845268293 L63.3556683,4.36150244 C63.3556683,5.36247805 63.9984,5.97389268 64.8943024,5.97389268 C65.7787902,5.97389268 66.3793756,5.36247805 66.3793756,4.36150244 L66.3793756,0.0845268293 L68.2440585,0.0845268293 L68.2440585,4.36150244 Z" id="Fill-22"></path>
                <polygon id="Fill-23" points="72.227561 7.45899512 74.1027805 7.45899512 74.1027805 0.0842634146 72.227561 0.0842634146"></polygon>
                <path d="M80.0877073,5.96297561 L81.4258537,5.96297561 C82.5740488,5.96297561 83.3959024,5.0784878 83.3959024,3.7824878 C83.3959024,2.47595122 82.5321951,1.58004878 81.341561,1.58004878 L80.0877073,1.58004878 L80.0877073,5.96297561 Z M81.3837073,0.0841463415 C83.7017561,0.0841463415 85.3027317,1.58004878 85.3027317,3.77195122 C85.3027317,5.95243902 83.6800976,7.45887805 81.3099512,7.45887805 L78.2124878,7.45887805 L78.2124878,0.0841463415 L81.3837073,0.0841463415 Z" id="Fill-24"></path>
                <path d="M90.2241366,3.77154146 C90.2241366,5.01485854 91.1826732,5.97339512 92.3100878,5.97339512 C93.4483317,5.97339512 94.3538927,5.01485854 94.3538927,3.77154146 C94.3538927,2.52851707 93.4483317,1.59076098 92.3100878,1.59076098 C91.1724293,1.59076098 90.2241366,2.52851707 90.2241366,3.77154146 M96.2817951,3.76100488 C96.2817951,5.91076098 94.575161,7.54363902 92.2893073,7.54363902 C90.0134049,7.54363902 88.3067707,5.92129756 88.3067707,3.76100488 C88.3067707,1.61183415 90.0134049,0.021395122 92.2893073,0.021395122 C94.575161,0.021395122 96.2817951,1.62237073 96.2817951,3.76100488" id="Fill-25"></path>
                <path d="M103.2048,3.90845854 C104.016117,3.90845854 104.490556,3.49811707 104.490556,2.71840976 C104.490556,1.94953171 104.016117,1.55967805 103.2048,1.55967805 L101.782946,1.55967805 L101.782946,3.90845854 L103.2048,3.90845854 Z M103.257776,5.38358049 L103.2048,5.38358049 L101.782946,5.38358049 L101.782946,7.45899512 L99.9071415,7.45899512 L99.9071415,0.0845560976 L103.2048,0.0845560976 C105.153776,0.0845560976 106.270946,1.01177561 106.270946,2.65489756 C106.270946,3.78201951 105.796507,4.59333659 104.932507,5.0250439 L106.481385,7.45899512 L104.353288,7.45899512 L103.257776,5.38358049 Z" id="Fill-26"></path>
                <path d="M113.46758,1.94915122 L112.392849,4.67754146 L114.521532,4.67754146 L113.46758,1.94915122 Z M111.845239,6.10027317 L111.307873,7.45890732 L109.379971,7.45890732 L112.561434,0.0841756098 L114.489629,0.0841756098 L117.597337,7.45890732 L115.595678,7.45890732 L115.069434,6.10027317 L111.845239,6.10027317 Z" id="Fill-27"></path>
            </g>
            <g id="plus" transform="translate(0.000000, 0.000000)">
                <g id="horizontal" transform="translate(0.000000, 21.658537)">
                    <path d="M19.4337073,1.37385366 L59.0492195,1.37385366 C63.5032683,1.37385366 67.5496098,3.19434146 70.482,6.12673171 C73.4138049,9.05853659 75.234,13.1063415 75.234,17.5592195 C75.234,22.0123902 73.4138049,26.0596098 70.482,28.9914146 C67.5496098,31.9226341 63.5032683,33.744 59.0492195,33.744 L19.4337073,33.744 C14.9805366,33.744 10.9333171,31.9226341 8.00092683,28.9914146 C5.06941463,26.0596098 3.24892683,22.0123902 3.24892683,17.5592195 C3.24892683,13.1063415 5.06941463,9.05853659 8.00092683,6.12673171 C10.9333171,3.19434146 14.9805366,1.37385366 19.4337073,1.37385366" id="Fill-28" fill="#FFFFFF"></path>
                    <path d="M61.3506439,8.87985366 C66.2194244,8.87985366 72.2393268,13.283561 72.4067415,18.6537073 C72.5744488,24.024439 67.214839,30.6174146 61.3506439,30.5140976 L25.7091805,30.5140976 L25.7091805,8.87985366 L61.3506439,8.87985366 Z" id="Fill-29" fill="#3A2D7B"></path>
                    <path d="M16.2589171,8.87985366 C11.3901366,8.87985366 5.37023415,13.283561 5.20281951,18.6537073 C5.0351122,24.024439 10.394722,30.6174146 16.2589171,30.5140976 L23.7036,30.5140976 L23.7036,8.87985366 L16.2589171,8.87985366 Z" id="Fill-30" fill="#BFB8E5"></path>
                    <path d="M17.5732683,5.40995122 C14.2346341,5.40995122 11.1977561,6.77765854 8.99414634,8.98039024 C6.79170732,11.1834146 5.42341463,14.2202927 5.42341463,17.5592195 C5.42341463,20.8969756 6.79170732,23.9341463 8.99414634,26.1377561 C11.1977561,28.3410732 14.2346341,29.7084878 17.5732683,29.7084878 L21.4852683,29.7084878 L21.4852683,5.40995122 L17.5732683,5.40995122 Z M60.5508293,5.40995122 L26.8943415,5.40995122 L26.8943415,29.7084878 L60.5508293,29.7084878 C63.8897561,29.7084878 66.9266341,28.3410732 69.1293659,26.1377561 C71.3332683,23.9341463 72.7009756,20.8969756 72.7009756,17.5592195 C72.7009756,14.2202927 71.3332683,11.1834146 69.1293659,8.98039024 C66.9266341,6.77765854 63.8897561,5.40995122 60.5508293,5.40995122 L60.5508293,5.40995122 Z M17.5586341,0 L60.5361951,0 C65.3683902,0 69.7580488,1.97531707 72.9392195,5.1564878 C76.1200976,8.33707317 78.0948293,12.7284878 78.0948293,17.5592195 C78.0948293,22.3902439 76.1200976,26.7810732 72.9392195,29.9616585 C69.7580488,33.1416585 65.3683902,35.1172683 60.5361951,35.1172683 L17.5586341,35.1172683 C12.7273171,35.1172683 8.33678049,33.1416585 5.15531707,29.9616585 C1.97531707,26.7810732 1.21312174e-15,22.3902439 1.21312174e-15,17.5592195 C1.21312174e-15,12.7284878 1.97531707,8.33707317 5.15531707,5.1564878 C8.33678049,1.97531707 12.7273171,0 17.5586341,0 L17.5586341,0 Z" id="Fill-31" fill="#3A2D7B"></path>
                </g>
                <g id="vertical" transform="translate(21.658537, 0.000000)">
                    <path d="M1.37356098,58.6611512 L1.37356098,19.0459317 C1.37356098,14.5918829 3.19434146,10.5455415 6.12673171,7.61315122 C9.05853659,4.68105366 13.1060488,2.86115122 17.5589268,2.86115122 C22.0120976,2.86115122 26.0593171,4.68105366 28.991122,7.61315122 C31.9226341,10.5455415 33.7437073,14.5918829 33.7437073,19.0459317 L33.7437073,58.6611512 C33.7437073,63.114322 31.9226341,67.1615415 28.991122,70.0939317 C26.0593171,73.0254439 22.0120976,74.8459317 17.5589268,74.8459317 C13.1060488,74.8459317 9.05853659,73.0254439 6.12673171,70.0939317 C3.19434146,67.1615415 1.37356098,63.114322 1.37356098,58.6611512" id="Fill-32" fill="#FFFFFF"></path>
                    <path d="M8.87970732,16.7443317 C8.87970732,11.8755512 13.2834146,5.85564878 18.653561,5.68823415 C24.0242927,5.52052683 30.6169756,10.8801366 30.5139512,16.7443317 L30.5139512,52.3852098 L8.87970732,52.3852098 L8.87970732,16.7443317 Z" id="Fill-33" fill="#3A2D7B"></path>
                    <path d="M8.87970732,61.8360585 C8.87970732,66.704839 13.2834146,72.7247415 18.653561,72.8918634 C24.0242927,73.0598634 30.6169756,67.7002537 30.5139512,61.8360585 L30.5139512,54.3910829 L8.87970732,54.3910829 L8.87970732,61.8360585 Z" id="Fill-34" fill="#BFB8E5"></path>
                    <path d="M5.40965854,60.521561 C5.40965854,63.8599024 6.77736585,66.8970732 8.98009756,69.1006829 C11.183122,71.3028293 14.22,72.6714146 17.5589268,72.6714146 C20.8969756,72.6714146 23.9338537,71.3028293 26.1374634,69.1006829 C28.3407805,66.8970732 29.7081951,63.8599024 29.7081951,60.521561 L29.7081951,56.6098537 L5.40965854,56.6098537 L5.40965854,60.521561 Z M5.40965854,17.544 L5.40965854,51.2004878 L29.7081951,51.2004878 L29.7081951,17.544 C29.7081951,14.2047805 28.3407805,11.1679024 26.1374634,8.96517073 C23.9338537,6.76156098 20.8969756,5.39356098 17.5589268,5.39356098 C14.22,5.39356098 11.183122,6.76156098 8.98009756,8.96517073 C6.77736585,11.1679024 5.40965854,14.2047805 5.40965854,17.544 L5.40965854,17.544 Z M-1.03981864e-14,60.5361951 L-1.03981864e-14,17.5586341 C-1.03981864e-14,12.726439 1.97502439,8.33678049 5.15619512,5.15560976 C8.33707317,1.97473171 12.7281951,-1.91326629e-13 17.5589268,-1.91326629e-13 C22.3899512,-1.91326629e-13 26.7807805,1.97473171 29.9613659,5.15560976 C33.1416585,8.33678049 35.1172683,12.726439 35.1172683,17.5586341 L35.1172683,60.5361951 C35.1172683,65.3675122 33.1416585,69.7583415 29.9613659,72.9395122 C26.7807805,76.1195122 22.3899512,78.0948293 17.5589268,78.0948293 C12.7281951,78.0948293 8.33707317,76.1195122 5.15619512,72.9395122 C1.97502439,69.7583415 -1.03981864e-14,65.3675122 -1.03981864e-14,60.5361951 L-1.03981864e-14,60.5361951 Z" id="Fill-35" fill="#3A2D7B"></path>
                </g>
            </g>
        </g>
    </g>
</svg>